<svg width="60" height="57" viewBox="0 0 60 57" fill="none" xmlns="http://www.w3.org/2000/svg">
<path d="M29.8566 0.31604C24.0792 0.31604 18.4315 1.97422 13.6278 5.08089C8.82402 8.18758 5.07999 12.6032 2.86908 17.7694C0.658164 22.9356 0.079688 28.6203 1.2068 34.1048C2.33391 39.5892 5.116 44.6269 9.20127 48.581C13.2865 52.535 18.4914 55.2278 24.1578 56.3187C29.8242 57.4096 35.6976 56.8497 41.0352 54.7098C46.3728 52.5699 50.9349 48.946 54.1447 44.2966C57.3545 39.6471 59.0676 34.1808 59.0676 28.589C59.0676 21.0906 55.99 13.8992 50.5119 8.59703C45.0338 3.29478 37.6039 0.31604 29.8566 0.31604ZM25.7237 40.6134L23.5747 46.7896C19.6252 45.4812 16.1971 43.0107 13.7698 39.7237C11.3426 36.4365 10.0378 32.4973 10.0378 28.457C10.0378 24.4167 11.3426 20.4774 13.7698 17.1904C16.1971 13.9032 19.6252 11.4327 23.5747 10.1244L25.7237 16.3086C23.1115 17.1816 20.8457 18.8214 19.2418 20.9997C17.638 23.178 16.776 25.7862 16.776 28.461C16.776 31.1358 17.638 33.744 19.2418 35.9223C20.8457 38.1005 23.1115 39.7404 25.7237 40.6134ZM35.7748 46.9176L33.758 40.6934C36.4209 39.8649 38.7455 38.2435 40.3998 36.0604C42.0541 33.8774 42.9537 31.2443 42.9701 28.5371C42.9867 25.8299 42.1193 23.1868 40.4916 20.985C38.864 18.7833 36.5595 17.1354 33.9068 16.2766L35.998 10.0764C39.9903 11.3765 43.4572 13.8622 45.9052 17.18C48.3533 20.4977 49.6578 24.4782 49.6331 28.5551C49.6083 32.6319 48.2557 36.5974 45.7675 39.887C43.2794 43.1767 39.7826 45.6229 35.7748 46.8776" fill="#3AB6EC"/>
<path d="M29.2531 0.0999767C23.4749 0.0983944 17.8261 1.75543 13.0211 4.86149C8.21613 7.96756 4.47078 12.3831 2.25885 17.5496C0.0469053 22.7162 -0.532268 28.4016 0.594584 33.8867C1.72143 39.3719 4.50369 44.4104 8.58946 48.3649C12.6752 52.3194 17.8808 55.0124 23.548 56.103C29.2151 57.1936 35.0892 56.633 40.4272 54.4922C45.7652 52.3513 50.3272 48.7262 53.5363 44.0755C56.7455 39.4248 58.4575 33.9574 58.4558 28.3649C58.4558 20.8686 55.3791 13.6793 49.9025 8.37857C44.4259 3.07788 36.9981 0.0999767 29.2531 0.0999767ZM25.1202 40.3893L22.9711 46.5655C19.0216 45.2572 15.5935 42.7867 13.1663 39.4995C10.7391 36.2125 9.43421 32.2732 9.43421 28.2329C9.43421 24.1926 10.7391 20.2534 13.1663 16.9663C15.5935 13.6791 19.0216 11.2087 22.9711 9.9003L25.1202 16.1005C22.5079 16.9735 20.242 18.6134 18.6382 20.7916C17.0344 22.9699 16.1725 25.5781 16.1725 28.2529C16.1725 30.9277 17.0344 33.536 18.6382 35.7142C20.242 37.8924 22.5079 39.5323 25.1202 40.4053V40.3893ZM35.163 46.7095L33.1049 40.4773C35.7678 39.6488 38.0922 38.0274 39.7466 35.8444C41.4009 33.6613 42.3005 31.0283 42.317 28.3211C42.3335 25.6139 41.466 22.9707 39.8385 20.769C38.2108 18.5672 35.9063 16.9193 33.2537 16.0605L35.3448 9.8603C39.3412 11.1563 42.8128 13.6406 45.2645 16.9589C47.7162 20.277 49.0228 24.2598 48.9981 28.3391C48.9734 32.4184 47.6185 36.3861 45.1268 39.6762C42.635 42.9663 39.1335 45.411 35.1217 46.6615" fill="#3AB6EC"/>
</svg>
